<svg xmlns="http://www.w3.org/2000/svg" version="1.1" xmlns:xlink="http://www.w3.org/1999/xlink" xmlns:svgjs="http://svgjs.com/svgjs" width="1000" height="1000"><rect width="1000" height="1000" rx="400" ry="400" fill="#1e1e1e"></rect><g transform="matrix(2.957486136783734,0,0,2.957486136783734,99.99998506556597,135.10973310022035)"><svg xmlns="http://www.w3.org/2000/svg" version="1.1" xmlns:xlink="http://www.w3.org/1999/xlink" xmlns:svgjs="http://svgjs.com/svgjs" width="270.5" height="246.75706"><svg version="1.1" xmlns="http://www.w3.org/2000/svg" xmlns:xlink="http://www.w3.org/1999/xlink" width="270.5" height="246.75706" viewBox="0,0,270.5,246.75706"><g transform="translate(-104.75,-79)"><g data-paper-data="{&quot;isPaintingLayer&quot;:true}" fill-rule="nonzero" stroke-width="0" stroke-linecap="butt" stroke-linejoin="miter" stroke-miterlimit="10" stroke-dasharray="" stroke-dashoffset="0" style="mix-blend-mode: normal"><path d="M104.75,325.75706v-246.75706h270.5v246.75706z" fill="#1e1e1e" stroke="none"></path><path d="M291.7285,211.14931c-9.71467,0.72305 -35.36507,-0.88206 -72.11582,25.89325c-43.47495,31.04997 -57.7064,44.89507 -73.38418,28.93213c-20.9955,-21.37739 32.95207,-166.28277 94.608,-99.89127c0.81024,0.87247 3.20384,23.49549 -11.29412,5.15921c-19.58898,-23.02252 -46.08522,-0.1661 -61.31721,27.98632c-14.64399,27.06566 -18.6747,59.02636 -6.01738,59.81993c12.65732,0.79358 51.62573,-40.02149 87.5023,-53.54378c24.94608,-9.40247 77.50348,-11.36488 88.49493,-1.22679c0.54618,38.80119 -25.60153,66.12942 -59.0068,63.26012c-18.26411,-1.56877 -42.8457,-41.24992 -51.17265,-59.57959c-26.70648,-54.32359 -24.44834,-97.17122 -19.50258,-110.0146c2.10684,-5.47113 -2.54487,34.22975 15.27513,76.02965c11.60995,32.34823 32.17925,61.38998 41.52823,68.02399c18.87167,21.29646 44.86143,2.29027 47.28722,-1.13189c24.8042,-34.99206 -3.42859,-31.01593 -20.88505,-29.71667z" fill="#d4d4d4" stroke="#ff0000"></path></g></g></svg></svg></g></svg>