<svg id="图层_1" data-name="图层 1" xmlns="http://www.w3.org/2000/svg" viewBox="0 0 49.25098 5.80664"><path d="M-13.73828,5.74414h.04394q.35157.0498.35157.33691v.0293Q-13.416,7.17676-13.416,8.17578l-.01464.17578.01464.01465-.01464.10254v.16113l-.01465.21973.04394.0293a2.383,2.383,0,0,1,.55664-.19043h.14649a.56633.56633,0,0,0,.21972.17578l.01465.04394a.48127.48127,0,0,1-.38086.26368q-.14648.06738-.14648.11718l.01465.27832V9.582a2.09242,2.09242,0,0,1-.0586.39551l.17578.23437.0293.14356v.01465q0,.02929-.249.14648h-.0586q-.23143,0-.30761-.39258-.0879-.10254-.11719-.10254a.83058.83058,0,0,0-.4248.37793q-.20216.49806-.46875.49805a.36928.36928,0,0,1-.27833-.35156q0-.07324.39551-.31934a.20217.20217,0,0,0,.07325-.13183.36184.36184,0,0,0-.11719-.19043,2.11265,2.11265,0,0,1-.95215.39258q-.06738,0-.14649-.2754.0381-.09375.07325-.10253h.02929l.11719.02929a2.93579,2.93579,0,0,0,.86426-.43945l.0293-.10254V9.30371l-.044-.04394-.10254.01464-.01465-.01464V9.21582l.0586-.08789q-.14649-.03222-.14649-.21973V8.87891a1.19325,1.19325,0,0,0,.26367-.62989,1.02761,1.02761,0,0,0-.08789-.3955l-.08789-.0293-.20508.01465q-.4248-.05274-.4248-.11719v-.0293l.52734-.21972q.19044-.10548.19043-.19043,0-.22266-.38086-.542V6.72559a.71722.71722,0,0,1,.43946-.20508.51868.51868,0,0,1,.36621.46875v.08789l.07324.01465a.78135.78135,0,0,1,.249-.10254,2.15618,2.15618,0,0,0,.0586-.60059.86983.86983,0,0,0-.14649-.60058Zm-.10254,3.13477a.5118.5118,0,0,0-.16113.32226l.07324.044a.55642.55642,0,0,0,.16113-.33692Zm-.16113.9375q.02051.05859.04394.05859h.01465q.044,0,.08789-.16113l-.05859-.0293A.13368.13368,0,0,0-14.00195,9.81641Zm.04394-2.22657v.0586h.19043l.0586-.0586V7.502l-.04395-.04394h-.01465Q-13.84082,7.458-13.958,7.58984Zm.07324.71778v.05859l.10254.0293.044-.0586V8.21973l-.0293-.0293h-.0293Zm.498,1.12793.07324.16113q-.10546.20508-.20507.20508l-.16114-.07324h-.01465q-.06738,0-.17578.30761v.01465h.01465a1.27592,1.27592,0,0,1,.49805-.16113q.123,0,.249-.542V9.333l-.0293-.044Q-13.36034,9.35644-13.38672,9.43555Zm1.40625-2.92969h.10254l.19043.0293.11719-.0293a.54091.54091,0,0,0,.21972.04394q.23438.11427.23438.21973v.01465a1.1997,1.1997,0,0,1-.20508.26367l-.542.42481q-.20508.14063-.20508.17578a6.69676,6.69676,0,0,1,.20508.77636l.05859.0879v.05859l-.02929.05859a3.814,3.814,0,0,0,.10253.67383l-.01464.07324v.249a.73072.73072,0,0,1-.43946.77343l-.08789.01465h-.02929a.95958.95958,0,0,1-.19043-.334l-.0586-.0586V9.99219q0-.02051.19043-.13184a1.08874,1.08874,0,0,0,.14649-.52734l-.04395-.58594.01465-.08789a2.21089,2.21089,0,0,1-.07324-.67383q-.0205-.17579-.13184-.17578l-.10254.0293-.02929-.04395v-.0293a.40116.40116,0,0,0,.07324-.249l-.01465-.13183q.03222-.0879.05859-.08789l.11719.02929h.01465a1.16224,1.16224,0,0,0,.35156-.61523q-.13183-.07617-.13183-.10254V6.59375A.14874.14874,0,0,1-11.98047,6.50586Zm1.49414,1.55273a.2301.2301,0,0,1,.17578.11719v.044a1.176,1.176,0,0,1-.58593.293h-.0293l-.542-.0293L-11.585,8.498l-.01465-.01465V8.46875q0-.04395.33691-.11719A2.00932,2.00932,0,0,1-10.48633,8.05859Zm-.82031.89356h.01465a3.28574,3.28574,0,0,1,.27832,1.6084v.20507q-.06446.70607-.16113.76172h-.01465a4.93047,4.93047,0,0,1-.23438-1.59375Q-11.39453,8.95215-11.30664,8.95215Z" transform="translate(15.48145 -5.7207)"/><path d="M-6.72461,5.74414h.07617q.18165,0,.2168.29l-.03223.12305.01465.29q0,.46-.06152,1.32714a.93844.93844,0,0,0,.27539.09082q.10839.10254.1084.167,0,.13768-.48926.35156-.29.22851-.30762.38086l.04688.04394,1.45312-.19629a.42176.42176,0,0,1,.41309.30469l.01758.04688q0,.13476-.61231.13476H-5.957a1.15381,1.15381,0,0,0-.87305.48926l-.07617.35156q-.082.12012-.1377.12012Q-7.457,9.91308-7.457,9.69336q-.03224-.01172-.06152-.13477l.06152-.36621V9.16016h-.04688l-.55078.67089v.03223q0,.06153.39844.12012a4.67362,4.67362,0,0,1,.81152.22851,6.74748,6.74748,0,0,0,2.05078.27247q.37207,0,.47461.23144l.0293.07617q0,.167-1.27148.167H-5.667a3.56114,3.56114,0,0,1-1.5-.5039l-1.02539-.39551H-8.207q-.07911,0-.33692.30469a1.61,1.61,0,0,1-.93457.38086L-9.54,10.669v-.0293l.123-.36621a.87655.87655,0,0,1,.68847-.42774q.33692,0,.41309-.18164a7.66006,7.66006,0,0,0,.68848-.79394l-.01465-.01465h-.01465a6.22982,6.22982,0,0,1-.8877.39551l-.26074.04687q-.18456-.02051-.18457-.10547a.37434.37434,0,0,1,.2461-.36621A8.72687,8.72687,0,0,1-7.51855,7.833l.02929-.0586V7.4668l-.02929-.334.01464-.10547a.79863.79863,0,0,0-.16992-.53613V6.44727l.04688-.04688q.39843,0,.39843.21387,0,.24317.06153.24316a.2625.2625,0,0,1,.26074.12305v.0293a1.24956,1.24956,0,0,1-.1377.35156q0,.07617.19922.09082a.23862.23862,0,0,0,.0586-.167l.01758-.76172q0-.33692-.1084-.33692H-6.8916a1.97435,1.97435,0,0,1-.47461.15235q-.29-.09961-.29-.24317V6.04883a.1.1,0,0,1,.06152-.10547h.0293q.08788.10547.15234.10547A3.84442,3.84442,0,0,1-6.72461,5.74414ZM-9.35547,10.4082v.03223q.02929.06153.07617.06152a2.93039,2.93039,0,0,0,.6416-.51855V9.96875l-.04394-.04687a1.01108,1.01108,0,0,0-.583.29A.49357.49357,0,0,0-9.35547,10.4082Zm1.16309-1.64355V8.794h.01465a4.216,4.216,0,0,0,.627-.24317l.04687-.06152a.62221.62221,0,0,0-.123-.18164Q-7.7207,8.30762-8.19238,8.76465Zm.99316-.6709v.044l.03223.03222h.01465l.19922-.167V7.95605H-7Q-7.09083,7.95605-7.19922,8.09375Zm.18457,1.09863v.0293l.04688.04687a1.28357,1.28357,0,0,0,.29-.21386V9.02246A.47622.47622,0,0,0-6.93848,8.917Q-7.01465,8.917-7.01465,9.19238Z" transform="translate(15.48145 -5.7207)"/><path d="M.83691,6.06641q.54786.06738.54786.2666.03222,0,.03222.07617v.0791q0,.10841-.33105.1084L.19238,6.582l-.04687.04688H.13086l.01465.1875v.32812L.21,7.20605a1.11749,1.11749,0,0,1,.40723-.10839h.126q.45411.0996.45411.42187a5.72212,5.72212,0,0,1,.07617.98438V8.832q0,.57129-.2168.73535a.35314.35314,0,0,1-.20508.0791H.81934q-.32227,0-.70313-.627v-.0293l.01465-.01757H.14551Q.48535,9.333.71094,9.333q.20214,0,.20215-1.0166V8.22266q-.0586-.91992-.20215-.91993H.67871q-.6123.21094-.6123.51563v.0293q0,.04688.17285.04687.36035.13184.36035.36035,0,.07325-.15527.17285a2.69613,2.69613,0,0,1-.42481-.28125H-.02734l-.20215.35743q-.40137.54785-.56543.54785a.10247.10247,0,0,1-.06153-.1084v-.0791Q-.82714,8.583-.77734,8.583H-.7627l.09375.09375A1.703,1.703,0,0,0-.21484,7.833V7.80078l-.04688-.01465q-.70605.38965-.70605.92285-.01758.63868-.14063.63868a.26959.26959,0,0,1-.1875-.2959l.01465-.01465-.01465-.06445.126-1.374V7.584l-.01758-.20507.01758-.01465h.01465a.38892.38892,0,0,1,.29882.42187L-.90332,7.959l.06152.01465a2.77075,2.77075,0,0,1,.69141-.5625l.04687-.04687q0-.51562-.0791-.51563H-.2002l-.16992.14063L-.3877,6.97168V6.957l.01758-.126H-.40234l-.69141.26661-.38965-.1875h-.03222q-.12891,0-.20508.34277v.06445a1.07468,1.07468,0,0,0,.25195.501l.01465.09375q-.044.28125-.20215.28125,0,.02929-.0791.0293-.51562-.24024-.51563-.375L-2.0957,7.707V7.69238q-.09669-.627-.1875-.62695h-.0791a1.93881,1.93881,0,0,1-.94043-.2168V6.81641q0-.03224.36035-.09375a4.5333,4.5333,0,0,1,.97265-.54786l.1084-.01464h.04688q.27246,0,.55078.501a.29624.29624,0,0,0-.06445.14063v.01465h.0791a5.27825,5.27825,0,0,0,.84668-.36036,2.961,2.961,0,0,1,1.11328-.375ZM-2.92773,7.14453q.43066,0,.5039.2666l.0293.5625-.0293,1.251a6.1468,6.1468,0,0,0,.1084.999v.1875q-.05274.40724-.1875.40723h-.03223a1.63458,1.63458,0,0,0-.3457-.21973l-.01465-.0791v-.27832a14.36337,14.36337,0,0,1,.14063-1.4707l-.01465-.15528.01465-.252q0-.94335-.21973-1.13965V7.19141ZM-1.876,8.36328q.41308,0,.46875.20508l.01758.2168-.01758.20507.01758.999q0,.24023.0791.26367a6.55343,6.55343,0,0,1,1.33008-.4043,4.61917,4.61917,0,0,1,.70606-.07617h.1582a1.12652,1.12652,0,0,1,.73535.2168q.126.05859.126.1582,0,.1172-.17285.16992a2.44724,2.44724,0,0,1-.73536-.15527l-.20507-.04688a10.79184,10.79184,0,0,0-1.59961.4043l-.46875.09375q-.42481,0-.42481-.21973a5.80422,5.80422,0,0,0,.0791-.85839l-.01465-.123.01465-.126q-.01464-.84375-.14062-.84375V8.39551Q-1.92285,8.36328-1.876,8.36328Z" transform="translate(15.48145 -5.7207)"/><path d="M4.34668,5.74414l.92871.06445L5.29,5.791h.01758q.65039.126.65039.43652a.37523.37523,0,0,1-.09668.24023l.0498.06446,1.10449-.27246.082-.01758q.47168.10839.47168.19336l.01757.09668q0,.13768-.34277.25781,0,.06151-.76465.28711a.86779.86779,0,0,1-.32519.0498l-.01758-.01757V7.07715a1.29658,1.29658,0,0,0,.32812-.25488V6.80469l-.03515-.03223q-.97853.07911-1.07227.25781a.55592.55592,0,0,1-.24609.12891H5.09668a.65413.65413,0,0,1-.34277-.17871,1.00339,1.00339,0,0,0-.57129.38672l-.27539.6123q-.16992.28711-.3252.28711H3.51758q-.21973,0-.31055-.46582a6.76851,6.76851,0,0,1,.26074-.86719V6.86914a.64133.64133,0,0,0-.14648-.27246v-.0498h.01465q.11426,0,.47461.32226.13183.17578.22558.17578a2.90087,2.90087,0,0,1,.84668-.31933q.21387,0,.21387-.30762a5.59539,5.59539,0,0,1-.76758-.59473l-.01465-.01465V5.77637Zm1.33594,1.6875.09668.01758.01758-.01758h.01464q.19629,0,.35743.35449V7.833q0,.05859-.16114.24316V8.1084q.00294.04688.24317.126l.22851.21093.03223.04688v.1289q-.06153.13184-.7002.40137l-.03222.11426.01758.01465-.01758.0498q0,.54492.21093.54492a.32187.32187,0,0,1,.11426.19336V9.957l-.04687.24024v.01464a1.81045,1.81045,0,0,0,.42187.3545l.01758.082q0,.20508-1.32129.59179,0,.04982-.14648.04981a.32129.32129,0,0,1-.17871-.30762l.01757-.16113-.06445-.38379q0-.23145.42188-.5625.22851-.09961.24609-.16113V9.3125L5.4043,9.248,4.68945,9.585a.45957.45957,0,0,1-.22851-.44824,1.89636,1.89636,0,0,1,.32519-.419l.3252-.46582q0-.05859-.24317-.09668-.36327-.24022-.39257-.38672l.01757-.01464h.01758l.19336.04687h.04981A2.33616,2.33616,0,0,0,5.665,7.43164ZM5.0293,10.502a.07828.07828,0,0,0,.082.06446l.13183-.17579V10.3584l-.0498-.04981Q5.10253,10.335,5.0293,10.502Zm.52148-1.78418h.01758q.35742-.05859.35742-.29-.03222-.07031-.06445-.0791-.11133,0-.24317.25782A.11016.11016,0,0,0,5.55078,8.71777Zm.26074,1.834v.01465q0,.03809.082.0498l.03223-.0498v-.03223L5.89355,10.502H5.86133Z" transform="translate(15.48145 -5.7207)"/><path d="M12.9248,5.74414a.57527.57527,0,0,1,.57129.39551l-.04394.27832.04394.0293h.01465a.62858.62858,0,0,1,.46875-.23438h.044a.45617.45617,0,0,1,.43945.23438l.01465.08789a2.91014,2.91014,0,0,1-.542.51269A1.92807,1.92807,0,0,0,13.26172,8v.044l.01465.01464H13.291a4.247,4.247,0,0,0,.835-.43945,1.44573,1.44573,0,0,1,.4541-.16113h.14648q.21974.05272.21973.17578,0,.10254-.41016.23437l-.30761.17579-.04395.11718q0,.06738.11719.17578h.02929l.14649-.04394a.36014.36014,0,0,1,.38086.23437V8.542q0,.1377-.52735.20508a.16251.16251,0,0,0-.07324.13184V8.9082a.09817.09817,0,0,0,.0586.10254l.21972-.04394h.01465a.33467.33467,0,0,1,.32227.17578v.04394q0,.11427-.26367.14649-.39552.082-.39551.23437v.0293h-.01465q.00879.36621.08789.36621h.0293q.05859-.02929.05859-.07324l-.044-.11719.01465-.01465h.04395a.64731.64731,0,0,0,.32226.16114h.16114q.4541.0498.4541.26367v.01465q0,.07617-.35156.11718l-.21973-.02929q-.61816,0-1.28906.04394l-.26368-.01465-.04394.07325a1.51906,1.51906,0,0,1,.23437.58593v.044q-.09081.14648-.19043.14648a.33567.33567,0,0,1-.36621-.249.78109.78109,0,0,1-.13183-.35156l.01465-.17578-.0293-.68848a13.01765,13.01765,0,0,1,.10254-1.4209V8.26367l-.01465-.05859a4.37862,4.37862,0,0,0,.27832-.77637l-.04394-.0293a.3856.3856,0,0,1-.17579.10254l-.13183-.01465q0,.07032-.62988,1.36231-.18458.33691-.30762.33691-.17579,0-.58594-.4541l-.23437-1.01074.05859-.0293a3.798,3.798,0,0,1,.58594.27832l.04394.04395h.0293q.03809,0,.07324-.17578,0-.11133-.52734-.19043l-.08789-.0586V7.56055l.4248-.21973a.75222.75222,0,0,1,.46875-.26367,1.37529,1.37529,0,0,1,.542.30762h.0293l.0293-.0293V7.28223L12.544,7.01855a2.56761,2.56761,0,0,1,.38085-.77636l.07325-.20508a.19023.19023,0,0,0-.10254-.14649h-.17578l-.0293-.02929Q12.69043,5.82617,12.9248,5.74414Zm.20508,4.35059a.12436.12436,0,0,0,.11719.07324q.52149-.05567.542-.14649,0-.35156-.08789-.35156-.57129.18165-.57129.35156Zm.01465-.30762.08789.04394q.20508-.13768.20508-.16113,0-.02637-.20508-.05859V9.59668Q13.14454,9.59668,13.14453,9.78711Zm.249-.835h-.11718a.09818.09818,0,0,0-.10254.05859l-.01465.38086.05859.04395q.60059-.10254.60059-.249,0-.27831-.08789-.27832Zm-.19043-.36621v.16113q.02931.05859.07325.05859.52734-.16992.52734-.23437-.085-.293-.19043-.293-.3955.082-.39551.14648Z" transform="translate(15.48145 -5.7207)"/><path d="M18.0752,5.94043a1.55721,1.55721,0,0,0,.65039.31641l.03222-.00293a3.90443,3.90443,0,0,0,1.01953-.43653l.24317-.07324a.22159.22159,0,0,1,.19629.11133V5.958a4.37655,4.37655,0,0,1-.68262,1.13086v.01758q0,.0498.06738.041l.19336-.10254q.46875-.04687.46875.15235v.14941a2.92967,2.92967,0,0,1-.30762.67969V8.044l.03223.04687a7.48233,7.48233,0,0,1,.92578-.22852q.51857-.00585.51856.21387a.524.524,0,0,1-.22559.4043L19.877,8.583l-.77929.17871-.01758-.01465h-.01465l-.51855.15234q-.36622.419-.51856.43653a.353.353,0,0,1-.34277-.21387q-.09669-.00293-.09668-.02344a1.46091,1.46091,0,0,1-.38965.12012q-.19337-.02344-.19336-.16113,0-.4336.19336-.45117l.01758-.00293a.46157.46157,0,0,1,.26074.09082,2.9043,2.9043,0,0,0,.89062-.24024,1.27252,1.27252,0,0,0,.22559-.42187q-.29.02929-.41895-.30762.01758-.334.06446-.33691l.03222-.00293q.03224-.00586.04688.16113l.082.041a.94774.94774,0,0,0,.79395-.53027,2.65637,2.65637,0,0,0,.293-.52734V6.51172q-.2373.30762-.35742.31933l-.19336.02051q-.30468.00879-.89355-.82324v-.0498Zm2.458,3.01172a.87439.87439,0,0,1,.60059.2373v.04981a1.9012,1.9012,0,0,1-.71484.9375l-.01465.00293v.06445q.30762.07032.30761.30176v.06738a.40457.40457,0,0,1-.14648.17871q-.98437.00294-1.23047.02637l-.0498.07031.03222.12891v.085q0,.1377-.19336.18457-.61817-.1377-.61816-.48633l.03223-.167a2.45707,2.45707,0,0,0-.17579-.86133,1.09747,1.09747,0,0,0-.22851-.24316V9.51172l.0498-.05567q.34278-.03514.7295.57422a1.7049,1.7049,0,0,0,.21093.54493l.04688-.00586q.29589-.02931.8291-.832.03222-.00292.03223-.085V9.63477l-.06739-.04395-.48632.09961-.04688.00586Q19.03321,9.7168,18.96,9.626V9.61133q0-.05274.65039-.2168l.43653-.16113A.7113.7113,0,0,1,20.5332,8.95215Zm-1.64648-.65039v.0498q0,.03224.0498.02637a1.67709,1.67709,0,0,0,.8086-.76172q.04688-.01758.14648-.28125l-.04687-.06152-.01758.00293a1.23606,1.23606,0,0,0-.63281.46289Z" transform="translate(15.48145 -5.7207)"/><path d="M23.90527,6.35938q.34278,0,.58594.48339l.01465.11719q0,.07617-.35156.39551v.01465l.20508.20508q.14647.14648.14648.21972a2.85841,2.85841,0,0,1-.5127.73242q0,.07032.21973.13184a.23967.23967,0,0,1,.08789.17578v.04395a8.07929,8.07929,0,0,0-.27832,1.374l.10254.49805q-.08788.43946-.14648.43945a.12354.12354,0,0,1-.10254.044q-.19044,0-.26368-.65918l.16114-.93458L23.75879,9.626V9.61133l.07324-.46875-.01465-.07324L23.832,8.9668q-.02051-.07324-.04394-.07325h-.0293a2.71125,2.71125,0,0,1-.55664.70313l-.01465.01465h-.05859a.20653.20653,0,0,1-.10254-.19043V9.34766a1.48993,1.48993,0,0,1,.46875-.835,2.768,2.768,0,0,0,.498-.89356.06923.06923,0,0,0-.07324-.05859,3.80657,3.80657,0,0,1-1.05469.82031l-.02929-.0293V8.33691q.334-.40722.76172-.99609a1.3082,1.3082,0,0,0,.3955-.70312q-.04394-.11719-.21972-.11719l-.20508.04394-.01465-.01465V6.53516a.59647.59647,0,0,1,.33691-.17578Zm1.9336-.61524a.21438.21438,0,0,1,.13183.20508v.39551q0,.16113.5127.21972.35156.1377.35156.20508v.0293q-.00879.19921-.71777.62988-.32228.167-.32227.36621l-.01465.11719v.43945l.04395.044a6.66156,6.66156,0,0,0,.95215-.5127q0-.05859.26367-.11719.293,0,.293.20508l.01465.11719-.11719.249q-.36036.98145-.70313.98145a.43126.43126,0,0,0-.17578-.05859q-.4248.10252-.4248.20507v.0293q.05566.08789.10254.08789a3.80023,3.80023,0,0,0,.80566-.293l.41016-.08789q.36621.044.36621.26367v.0293q0,.15528-.498.33691l-.01465.0586q0,.044.293.21973.35157.37793.35156.45117,0,.167-.46875.30761,0,.07032-.791.14649a1.20977,1.20977,0,0,1-1.12793-.52735l-.21973-.24609v-.05859h.0293a1.45075,1.45075,0,0,0,.9668.55371h.04394a3.02638,3.02638,0,0,0,.9961-.249.196.196,0,0,0,.05859-.13183.62224.62224,0,0,0-.17578-.40723h-.0586a2.082,2.082,0,0,1-.4541.16114l-.02929-.0293q.35156-.3252.35156-.43946V9.626q0-.02929-.044-.0293-.32226.06738-.32226.249a1.2204,1.2204,0,0,1-.42481.27832h-.01465q-.249-.082-.249-.27832l-.0293-.11718.11719-.23438-.08789-.0293a1.52266,1.52266,0,0,1-.4541.14649l-.33692.17578-.07324-.01465-.04394.01465a.676.676,0,0,1-.42481-.249v-.044l.0293-.0293a.50768.50768,0,0,0,.293.07325.211.211,0,0,0,.14648-.07325V9.4209q-.27831-.22853-.27832-.35156V8.86426a.94829.94829,0,0,1,.19043-.4834v-.044q0-.03222-.23437-.10253a.3358.3358,0,0,1-.0586-.20508V8a1.362,1.362,0,0,1,.21973-.4541,1.47968,1.47968,0,0,0,.08789-.36621q0-.03224-.14648-.19043l.01464-.01465h.01465q.46875.17284.46875.43945V7.502l.0586.04395q.293-.05859.293-.293a3.255,3.255,0,0,0,.08789-.70313v-.293a.5483.5483,0,0,0-.17579-.293q.07324-.17578.13184-.17578l.10254.01464Zm-.791,4.08691h.0293l.01465.01465h.01465l-.04395.27832.01465.044a2.55817,2.55817,0,0,0-.21973.65625.40791.40791,0,0,1-.293.19043H24.5498l-.04394-.04395v-.08789l-.01465-.20508a3.26939,3.26939,0,0,1,.32227-.45117Zm-.0293-1.626.01465.01465h.01465q.46875-.07325.46875-.30762V7.83887L25.458,7.79492h-.0293Q25.02441,8.06738,25.01855,8.20508Zm.04395.52734v.01465l.19043.42481-.01465.13183.04395.04395q.30761-.07911.30761-.16114a2.48974,2.48974,0,0,1-.05859-.4541q0-.03809-.38086-.07324A.14431.14431,0,0,0,25.0625,8.73242Zm.0293-.21972V8.542l.02929.0293q.35157-.01465.35157-.07324v-.0293Q25.332,8.293,25.25293,8.293,25.20019,8.293,25.0918,8.5127Zm.68847.542V9.084l.0293.0293h.0293a.92046.92046,0,0,0,.35156-.498l-.05859-.04394q-.30762.126-.30762.35156Q25.78906,8.92285,25.78027,9.05469Zm.17578-2.46094a4.17215,4.17215,0,0,1-.05859.60059l.044.02929q.09667,0,.4248-.30761V6.87207q0-.13183-.27832-.27832l-.05859-.05859h-.01465Zm.4834,1.86035.01465.11719a.49249.49249,0,0,1-.17578.35156V8.9375q0,.05859.19043.05859a.814.814,0,0,0,.20508-.4541l.07324-.17578Q26.7207,8.293,26.67383,8.293,26.43946,8.40136,26.43945,8.4541Z" transform="translate(15.48145 -5.7207)"/><path d="M30.30371,5.7207h.2959a.33142.33142,0,0,1,.17871.32813q0,.06446.09961.06445a1.07631,1.07631,0,0,1,.31348-.11133h.11425q.1172,0,.18164.20508.252,0,.46,1.26856,0,.2373.082.2373l.19629.0293q.16406,0,.22851-.42188a.3981.3981,0,0,0-.22851-.126q-.07911,0-.09961-.126V7.02148a1.9671,1.9671,0,0,1,.21386-.5625V6.42676l-.06445-.06446-.24609.03223a.35264.35264,0,0,1-.2461-.1084V6.26855a3.2111,3.2111,0,0,1,.58887-.2666.37724.37724,0,0,1,.19922-.123q.34277.09668.34277.26367V6.1748a1.34894,1.34894,0,0,1-.34277.67383q0,.09083.19629.15821a.41871.41871,0,0,1,.11426.249v.11133a1.92935,1.92935,0,0,1-.082.51855q0,.11425.50977.16992.46.085.46.28418-.03516.07911-.16406.07911h-.03223q-.80566-.05861-.80566-.19043l-.06446-.0293h-.01757a.30594.30594,0,0,0-.18164.1084,1.83066,1.83066,0,0,1-.70606.23437h-.03223l-.082-.01465q-.26367.02052-.26367.09375v.14063l.04981.04687q.18164,0,.18164-.15527l.01465-.01758q.52734.03224.52734.11133v.01465q0,.06151-.57715.2373a.29915.29915,0,0,0-.17871.2666q0,.249,1.75781.42188.39258.13183.39258.20508a.49335.49335,0,0,1-.47461.2666,3.23037,3.23037,0,0,1-1.05176-.2373l-.01757.01757V9.9541a.7342.7342,0,0,1,.18164.4834q0,.69141-.11426.69141a.28619.28619,0,0,1-.2959.252h-.01758a.19993.19993,0,0,1-.11426-.09668l.01465-.14063-.06445-.02929-.39551.06152-.26074-.03223q-.0498,0-.23145.1875h-.03222a.51619.51619,0,0,1-.41016-.51562,1.76761,1.76761,0,0,1,.27832-.9082l-.0498-.03223-.44239.1875a1.67071,1.67071,0,0,1-.77343.21973q-.12891-.02929-.12891-.06153l.03223-.03222h.09668a2.47886,2.47886,0,0,0,1.333-.78223q0-.09375-.44531-.1582h-.17871q-.03516,0-.03516-.14063l-.16406-.06152q-.05567,0-.13183.15527l.01757.0791a5.53377,5.53377,0,0,1-.80566.48633H28.8916L28.874,9.749l.26368-.42187a2.15573,2.15573,0,0,1,.41015-.69141l.082-.28125-.082-.09375V8.22852a.44035.44035,0,0,1,.19629-.126,1.31154,1.31154,0,0,0,.082-.42188.46116.46116,0,0,0-.19629-.0791l-.01758-.01465V7.55469q0-.04687.19922-.06153l.03223-.04687V7.42871l-.27832-.15527-.13184-.14063V7.11523l.03223-.02929.13184.01465.19629-.11133q.6914-.15528.6914-.32813V6.50586q0-.05567-.33105-.09668-.249-.12891-.27832-.249V6.14258l.0498-.0293a.60366.60366,0,0,0,.31055.126h.11719q.13184-.01172.13183-.11133,0-.08788-.19922-.31348l-.01465-.06152Zm-.11426,2.792h-.01757q-.0879,0-.27833.40722.04688.10841.5918.1084.50683-.04687.50684-.15527V8.76172a.09451.09451,0,0,0-.082-.06152l-.26075.04687L30.582,8.7002l.19629-.15821V8.52734l-.03223-.03222Zm-.21386-1.19239a.16641.16641,0,0,0,.082.1084L31.1416,6.96l.11426-.01758a.65646.65646,0,0,1,.24609.04688.08356.08356,0,0,0,.06739-.09375q0-.06153-.082-.1084Q30.11329,7.08594,29.97559,7.32031Zm.11425.51563a.11491.11491,0,0,0,.09961.126q.24611-.28125.2461-.36035V7.58691L30.38574,7.54Q30.08985,7.63087,30.08984,7.83594Zm.082.5332v.01758q0,.04688.06445.04687.55958-.11718.55957-.20507V8.21387a.2033.2033,0,0,0-.18164-.09375Q30.17188,8.1875,30.17188,8.36914Zm.50976-.89355.01465.11132a.3516.3516,0,0,1-.14649.249v.03222q0,.04688.16407.04688.11133,0,.24609-.51563l-.0498-.04687Q30.68164,7.41992,30.68164,7.47559Zm.082-.82911.06445.04688a1.85526,1.85526,0,0,1,.50977-.0791h.01758a.1107.1107,0,0,1,.11426.06152.07252.07252,0,0,0,.06445-.07617q-.05274-.4248-.17871-.42481h-.03223a1.89879,1.89879,0,0,1-.47754.20508A.32562.32562,0,0,0,30.76367,6.64648Zm.04981,2.99414v.01465l.04687.04688h.01758a.10334.10334,0,0,0,.11426-.07617q-.0205-.06446-.04688-.06446h-.0498Zm0,.76758v.126q0,.04688.06445.04687v.01465a6.038,6.038,0,0,1,.80566-.1875.2155.2155,0,0,0,.082-.14062.25651.25651,0,0,0-.13183-.23438,2.87485,2.87485,0,0,0-.77344.31055Zm.46.28125-.13184-.01465q-.32812.02345-.32812.1084,0,.21974.09668.21973a3.86548,3.86548,0,0,1,.78808-.17285q.05274,0,.13184-.126l-.06446-.07617Zm-.41309-.65625a.09026.09026,0,0,0,.06738.06153l.03223-.04688V10.0332l-.0498-.04687h-.01465Q30.86035,9.98633,30.86035,10.0332Zm.249-1.99218.03222.03222q.10841,0,.22852-.21972l.24609-.09375h.082l.03516-.07911a.78647.78647,0,0,1-.19922-.31347l-.01465-.01465H31.4873Zm.36035,1.69336.01757.0791h-.01757q0,.04393.082.0791l.14648-.01758.167.01758.01465-.01758V9.8457a.82383.82383,0,0,0-.3457-.1582h-.01465Zm.24609-1.97461a1.20767,1.20767,0,0,0-.16406.29589q.03808.09669.06445.09668h.09961a1.65993,1.65993,0,0,0,.41016-.28418V7.85352q0-.04981-.36036-.07911Z" transform="translate(15.48145 -5.7207)"/></svg>